<?xml version="1.0" encoding="utf-8"?>
<!-- Generator: Adobe Illustrator 16.0.0, SVG Export Plug-In . SVG Version: 6.00 Build 0)  -->
<!DOCTYPE svg PUBLIC "-//W3C//DTD SVG 1.1//EN" "http://www.w3.org/Graphics/SVG/1.1/DTD/svg11.dtd">
<svg version="1.1" id="logo" xmlns="http://www.w3.org/2000/svg" xmlns:xlink="http://www.w3.org/1999/xlink" x="0px" y="0px"
	 width="205.725px" height="150.752px" viewBox="0 0 205.725 150.752" enable-background="new 0 0 205.725 150.752"
	 xml:space="preserve">
<path fill="#FFFFFF" d="M153.568,83.582l-0.2,31.65c-1.01-0.971-2.02-1.95-3.03-2.931l-8.95-8.59c-0.68-0.66-1.35-1.3-2.02-1.94
	l-0.91-0.859c7.75-4.74,12.01-10.92,12.01-17.47c0-14.65-20.93-26.121-47.66-26.121s-47.67,11.47-47.67,26.121
	c0,6.5,4.2,12.649,11.84,17.359l-1.08,1.03c-0.65,0.62-1.3,1.25-1.94,1.87l-8.98,8.609c-1.24,1.2-2.49,2.41-3.72,3.61
	c-0.01-8.97-0.08-26.689-0.08-32.34c0-16.45,23.02-29.83,51.32-29.83S153.568,67.132,153.568,83.582z"/>
<path fill="#FFFFFF" d="M151.698,128.212c-0.01,0.01-0.01,0.03-0.021,0.04c-6.3,13.01-25.899,22.5-49.14,22.5
	c-23.16,0-42.67-9.42-49.04-22.37c0-0.01-0.01-0.01-0.01-0.02c2.72-2.811,7.1-7.33,8.64-8.91l4.66-4.84
	c1.53-1.601,3.05-3.19,4.54-4.74l0.76-0.8l2.28-2.4c0.51-0.54,1.01-1.07,1.51-1.59l1.24,0.43c7.64,2.641,16.53,4.04,25.69,4.04
	c9.07,0,17.87-1.37,25.46-3.96l1.26-0.43c0.47,0.5,0.95,1,1.43,1.51l3.05,3.2c1.48,1.55,3.011,3.14,4.54,4.75l4.66,4.84
	C144.708,121.002,148.967,125.392,151.698,128.212z"/>
<g>
	<path fill="#FFFFFF" d="M125.868,101.312c-6.66,2.131-14.57,3.36-23.06,3.36c-8.58,0-16.58-1.26-23.28-3.43
		c-0.48,0.51-0.97,1.02-1.47,1.55c7.09,2.45,15.61,3.88,24.75,3.88c9.05,0,17.48-1.4,24.53-3.81
		C126.837,102.332,126.348,101.822,125.868,101.312z M102.808,60.202c-24.7,0-44.79,10.43-44.79,23.24
		c0,5.859,4.2,11.22,11.13,15.31c0.48-0.46,0.96-0.92,1.43-1.37c-6.57-3.729-10.56-8.61-10.56-13.939
		c0-11.71,19.2-21.24,42.79-21.24c23.59,0,42.78,9.53,42.78,21.24c0,5.38-4.06,10.3-10.729,14.04c0.47,0.449,0.95,0.909,1.439,1.359
		c7.021-4.1,11.29-9.49,11.29-15.399C147.587,70.632,127.498,60.202,102.808,60.202z"/>
</g>
<g>
	<path fill="#FFFFFF" d="M202.318,49.022l-90.71-47.26c-4.57-2.39-12.01-2.34-16.62,0.1l-91.51,48.39
		c-4.61,2.44-4.64,6.34-0.07,8.73l42.09,21.93c2.98-18.15,26.95-31.99,57-31.99c29.771,0,53.57,13.58,56.92,31.48l42.83-22.65
		C206.858,55.312,206.887,51.412,202.318,49.022z M44.897,66.252c-0.56,0.96-1.57,1.5-2.61,1.5c-0.5,0-1.02-0.13-1.49-0.4l-13.86-8
		c-1.43-0.83-1.92-2.66-1.1-4.1c0.83-1.43,2.67-1.93,4.1-1.1l13.86,8C45.228,62.982,45.718,64.812,44.897,66.252z M71.448,47.582
		c-0.52,0.37-1.13,0.55-1.72,0.55c-0.95,0-1.87-0.44-2.46-1.27l-6.06-8.59c-0.95-1.35-0.63-3.23,0.72-4.18
		c1.36-0.96,3.23-0.63,4.19,0.72l6.05,8.59C73.127,44.752,72.808,46.632,71.448,47.582z M105.368,38.752c0,1.66-1.34,3-3,3
		s-3-1.34-3-3v-13c0-1.66,1.34-3,3-3s3,1.34,3,3V38.752z M144.028,38.272l-6.061,8.59c-0.59,0.83-1.51,1.27-2.46,1.27
		c-0.59,0-1.199-0.18-1.72-0.55c-1.36-0.95-1.68-2.83-0.72-4.18l6.06-8.59c0.95-1.35,2.82-1.68,4.181-0.72
		C144.658,35.052,144.978,36.922,144.028,38.272z M176.808,59.602l-12.99,7.5c-0.48,0.27-0.99,0.4-1.5,0.4
		c-1.04,0-2.05-0.54-2.601-1.5c-0.83-1.44-0.34-3.27,1.101-4.1l12.99-7.5c1.43-0.83,3.27-0.33,4.09,1.1
		C178.728,56.942,178.238,58.772,176.808,59.602z"/>
</g>
<g>
	<g>
		<path fill="#FFFFFF" d="M178.828,147.912c-0.99,1-2.57,1-3.56,0.02c0,0-0.95-0.939-2.61-2.58c-1.23-1.25-2.88-2.899-4.82-4.85
			c-0.64-0.64-1.319-1.32-2.01-2.02c-2.84-2.851-6.12-6.16-9.62-9.771c-0.3-0.31-0.609-0.62-0.92-0.93
			c-0.81-0.84-1.64-1.69-2.47-2.55c-2.47-2.54-5-5.16-7.54-7.78c-1.55-1.61-3.12-3.23-4.65-4.83c-1.8-1.88-3.58-3.73-5.31-5.54
			c-0.311-0.32-0.61-0.65-0.92-0.96c-1.42-1.5-2.8-2.95-4.12-4.351c-0.49-0.51-0.97-1.02-1.43-1.51
			c-1.37-1.439-2.671-2.81-3.881-4.09c-1.38-1.45-2.649-2.78-3.77-3.96c-1.05-1.1-1.89-2.14-2.55-3.06
			c-0.061-0.07-0.11-0.131-0.16-0.2c-0.3-0.431-0.57-0.83-0.8-1.2c-0.891,0.49-2.04,0.36-2.79-0.4c-0.92-0.93-0.92-2.43,0-3.34
			c0.92-0.93,2.42-0.93,3.35,0c0.75,0.74,0.89,1.891,0.4,2.78c0.37,0.229,0.77,0.5,1.2,0.8c0.739,0.54,1.56,1.19,2.439,1.97
			c0.271,0.24,0.53,0.49,0.811,0.75c1.189,1.11,2.52,2.381,3.97,3.761c1.56,1.479,3.26,3.09,5.06,4.8c0.49,0.46,0.99,0.93,1.49,1.41
			c1.1,1.04,2.24,2.12,3.4,3.22c0.779,0.75,1.569,1.51,2.359,2.28c1.78,1.7,3.61,3.46,5.46,5.229c1.17,1.12,2.34,2.24,3.511,3.37
			c1.68,1.63,3.359,3.26,5.02,4.87c2.12,2.07,4.22,4.1,6.24,6.06c0.859,0.83,1.7,1.66,2.52,2.471c2.63,2.569,5.09,4.989,7.25,7.149
			c0.26,0.271,0.521,0.521,0.78,0.771c2.5,2.479,4.59,4.569,6.09,6.06c1.64,1.66,2.58,2.61,2.58,2.61
			C179.797,145.352,179.808,146.932,178.828,147.912z"/>
	</g>
</g>
<g>
	<g>
		<path fill="#FFFFFF" d="M26.939,147.912c0.99,1,2.57,1,3.56,0.02c0,0,0.95-0.939,2.61-2.58c1.23-1.25,2.88-2.899,4.82-4.85
			c0.64-0.64,1.319-1.32,2.01-2.02c2.84-2.851,6.12-6.16,9.62-9.771c0.3-0.31,0.609-0.62,0.92-0.93c0.81-0.84,1.64-1.69,2.47-2.55
			c2.47-2.54,5-5.16,7.54-7.78c1.55-1.61,3.12-3.23,4.65-4.83c1.8-1.88,3.58-3.73,5.31-5.54c0.311-0.32,0.61-0.65,0.92-0.96
			c1.42-1.5,2.8-2.95,4.12-4.351c0.49-0.51,0.97-1.02,1.43-1.51c1.37-1.439,2.671-2.81,3.881-4.09c1.38-1.45,2.649-2.78,3.77-3.96
			c1.05-1.1,1.89-2.14,2.55-3.06c0.061-0.07,0.11-0.131,0.16-0.2c0.3-0.431,0.57-0.83,0.8-1.2c0.891,0.49,2.04,0.36,2.79-0.4
			c0.92-0.93,0.92-2.43,0-3.34c-0.92-0.93-2.42-0.93-3.35,0c-0.75,0.74-0.89,1.891-0.4,2.78c-0.37,0.229-0.77,0.5-1.2,0.8
			c-0.739,0.54-1.56,1.19-2.439,1.97c-0.271,0.24-0.53,0.49-0.811,0.75c-1.189,1.11-2.52,2.381-3.97,3.761
			c-1.56,1.479-3.26,3.09-5.06,4.8c-0.49,0.46-0.99,0.93-1.49,1.41c-1.1,1.04-2.24,2.12-3.4,3.22c-0.779,0.75-1.569,1.51-2.359,2.28
			c-1.78,1.7-3.61,3.46-5.46,5.229c-1.17,1.12-2.34,2.24-3.511,3.37c-1.68,1.63-3.359,3.26-5.02,4.87c-2.12,2.07-4.22,4.1-6.24,6.06
			c-0.859,0.83-1.7,1.66-2.52,2.471c-2.63,2.569-5.09,4.989-7.25,7.149c-0.26,0.271-0.521,0.521-0.78,0.771
			c-2.5,2.479-4.59,4.569-6.09,6.06c-1.64,1.66-2.58,2.61-2.58,2.61C25.969,145.352,25.958,146.932,26.939,147.912z"/>
	</g>
</g>
</svg>
